<?xml version="1.0" encoding="UTF-8"?>
<svg xmlns="http://www.w3.org/2000/svg" xmlns:xlink="http://www.w3.org/1999/xlink" width="82px" height="82px" viewBox="0 0 82 82" version="1.1">
<defs>
<linearGradient id="linear0" gradientUnits="userSpaceOnUse" x1="39" y1="39.700001" x2="71.099998" y2="39.700001" gradientTransform="matrix(1,0,0,-1,0,80.699997)">
<stop offset="0" style="stop-color:rgb(100%,100%,100%);stop-opacity:0.2;"/>
<stop offset="1" style="stop-color:rgb(0%,0%,0%);stop-opacity:0.2;"/>
</linearGradient>
</defs>
<g id="surface1">
<path style="fill-rule:nonzero;fill:rgb(100%,99.607843%,98.431373%);fill-opacity:1;stroke-width:1;stroke-linecap:butt;stroke-linejoin:miter;stroke:url(#linear0);stroke-miterlimit:10;" d="M 47.801068 17.5 C 53.90244 17.5 60.000001 17.701982 66.200458 17.801067 C 66.600611 17.801067 67.198934 17.801067 67.801068 18.20122 C 68.498477 18.498476 68.799544 19.001525 69.199696 19.500763 C 69.500763 19.900915 69.900916 20.499238 70.201983 21.299543 C 70.201983 21.501525 70.400154 21.901677 70.400154 23.399391 C 70.400154 24.001525 70.400154 24.798019 70.400154 25.899391 C 68.799544 37.099848 67.298019 48.300306 65.701221 59.500763 C 65.701221 60.000001 65.499239 60.899391 65.099086 61.901678 C 64.900916 62.298019 64.599849 62.999239 63.90244 63.597562 C 62.999239 64.401678 61.901678 64.500763 61.501525 64.599849 C 54.199696 64.599849 46.798781 64.500763 39.500763 64.401678 C 42.198934 48.799544 45.000001 33.20122 47.701983 17.701982 Z M 47.801068 17.5 " transform="matrix(1.025,0,0,1.025,0,0)"/>
<path style=" stroke:none;fill-rule:nonzero;fill:rgb(4.705882%,7.450981%,10.980392%);fill-opacity:1;" d="M 50.429688 22.140625 C 57.8125 22.039062 63.140625 22.140625 64.472656 22.140625 C 65.1875 22.140625 65.601562 22.449219 65.804688 22.550781 C 66.523438 22.960938 66.832031 23.472656 67.136719 23.984375 C 67.445312 24.394531 67.855469 25.011719 68.0625 25.933594 C 68.265625 26.75 68.0625 27.367188 68.0625 27.777344 C 66.625 38.335938 65.1875 48.996094 63.753906 59.550781 C 63.753906 59.859375 63.550781 60.375 63.242188 60.886719 C 62.730469 61.601562 62.113281 62.011719 61.910156 62.113281 C 61.398438 62.421875 60.886719 62.523438 60.578125 62.523438 C 55.964844 62.523438 51.351562 62.523438 46.738281 62.523438 C 47.96875 48.996094 49.300781 35.363281 50.53125 21.832031 Z M 50.429688 22.140625 "/>
<path style=" stroke:none;fill-rule:nonzero;fill:rgb(30.19608%,30.19608%,30.19608%);fill-opacity:1;" d="M 52.375 32.902344 L 64.269531 32.902344 C 64.472656 33.003906 64.882812 33.3125 65.1875 33.722656 C 65.703125 34.4375 65.90625 35.15625 66.011719 35.566406 C 64.78125 43.460938 63.449219 51.351562 62.21875 59.246094 C 62.011719 59.550781 61.707031 60.0625 61.191406 60.375 C 60.167969 61.089844 59.144531 60.988281 58.835938 60.886719 C 55.144531 60.886719 51.558594 61.089844 47.867188 61.191406 C 49.300781 51.761719 50.839844 42.332031 52.273438 32.902344 Z M 52.375 32.902344 "/>
<path style=" stroke:none;fill-rule:nonzero;fill:rgb(0.392157%,56.470591%,100%);fill-opacity:1;" d="M 28.085938 67.34375 C 26.546875 64.882812 19.476562 51.660156 10.042969 33.414062 C 9.839844 32.902344 9.636719 31.980469 9.738281 30.851562 C 9.738281 30.542969 9.839844 29.210938 10.761719 27.878906 C 11.171875 27.367188 11.480469 26.957031 11.789062 26.75 C 21.832031 22.34375 31.773438 17.9375 41.820312 13.425781 C 42.125 13.222656 42.640625 13.019531 43.253906 12.914062 C 44.175781 12.8125 44.792969 13.019531 45.304688 13.222656 C 45.613281 13.324219 46.332031 13.632812 46.945312 14.25 C 47.457031 14.65625 47.867188 15.273438 48.378906 16.5 C 48.789062 17.527344 49.40625 19.0625 49.710938 21.113281 C 52.171875 32.1875 54.632812 43.152344 56.988281 54.222656 C 56.988281 54.734375 57.09375 55.554688 56.988281 56.476562 C 56.683594 57.8125 56.066406 58.628906 55.65625 59.039062 C 53.09375 60.167969 50.53125 61.398438 47.96875 62.523438 C 42.949219 64.78125 38.027344 67.035156 33.003906 69.289062 C 32.390625 69.597656 31.570312 69.90625 30.648438 69.699219 C 29.3125 69.394531 28.496094 68.265625 27.980469 67.445312 Z M 28.085938 67.34375 "/>
<path style=" stroke:none;fill-rule:nonzero;fill:rgb(100%,99.607843%,98.431373%);fill-opacity:1;" d="M 18.246094 35.464844 C 18.757812 35.15625 19.578125 34.644531 20.601562 34.234375 C 24.5 32.699219 26.75 34.644531 33.210938 35.667969 C 38.128906 36.386719 40.589844 36.796875 42.742188 36.59375 C 44.074219 36.488281 46.738281 36.082031 48.277344 37.824219 C 48.585938 38.230469 48.789062 38.644531 48.894531 38.949219 C 50.125 43.769531 51.457031 48.480469 52.6875 53.300781 C 52.6875 53.503906 52.789062 53.914062 52.6875 54.425781 C 52.6875 55.042969 52.375 55.554688 52.171875 55.761719 C 46.433594 58.425781 40.589844 61.191406 34.851562 63.855469 C 34.4375 63.960938 33.925781 64.0625 33.210938 64.0625 C 32.289062 64.0625 31.671875 63.753906 31.160156 63.550781 C 26.75 55.351562 22.242188 47.148438 17.835938 38.847656 C 17.730469 38.644531 17.324219 38.027344 17.425781 37.105469 C 17.425781 36.183594 17.9375 35.667969 18.039062 35.464844 Z M 18.246094 35.464844 "/>
<path style=" stroke:none;fill-rule:nonzero;fill:rgb(90.980393%,94.117647%,97.647059%);fill-opacity:1;" d="M 20.292969 39.976562 C 20.5 39.5625 20.910156 39.050781 21.625 38.644531 C 22.34375 38.230469 23.0625 38.128906 24.394531 38.230469 C 26.957031 38.4375 29.109375 38.949219 29.625 39.050781 C 30.648438 39.257812 31.058594 39.460938 32.082031 39.5625 C 33.105469 39.769531 33.722656 39.769531 34.542969 39.875 C 36.898438 40.078125 37.105469 40.179688 38.746094 40.28125 C 42.640625 40.589844 43.253906 40.078125 46.023438 40.589844 C 47.457031 40.792969 48.6875 41.207031 49.40625 41.511719 C 50.328125 45.40625 51.351562 49.300781 52.273438 53.199219 C 52.273438 53.402344 52.480469 54.121094 52.273438 54.9375 C 51.96875 55.761719 51.457031 56.273438 51.25 56.375 C 45.816406 58.835938 40.386719 61.191406 34.953125 63.652344 C 34.542969 63.753906 33.925781 63.855469 33.210938 63.855469 C 32.699219 63.855469 32.390625 63.652344 32.082031 63.550781 C 31.671875 63.449219 31.363281 63.242188 31.160156 63.140625 C 27.574219 55.453125 24.085938 47.765625 20.5 40.078125 Z M 20.292969 39.976562 "/>
</g>
</svg>
